<svg xmlns="http://www.w3.org/2000/svg" width="45.369" height="46.436" viewBox="0 0 45.369 46.436">
  <path id="Trazado_1325166" data-name="Trazado 1325166" d="M52.015,32.942a2.057,2.057,0,0,0-.345-1.073s0-20.492,0-20.494,0-2.394,0-2.394A1.972,1.972,0,0,0,49.7,7.009H35.675v-4.2A1.809,1.809,0,0,0,33.868,1H8.666A1.81,1.81,0,0,0,6.859,2.807V45.628a1.81,1.81,0,0,0,1.808,1.807h25.2a1.809,1.809,0,0,0,1.807-1.807V38.116H36.8l1.289,1.717.525,2.355a.483.483,0,0,0,.04.113,3.579,3.579,0,0,0,3.291,1.953l6.54-.2a3.543,3.543,0,0,0,3.126-2.072,4.588,4.588,0,0,0,.616-2.342l-.208-6.7ZM49.7,7.978a1,1,0,0,1,1,1v1.908H14.292V8.981a1,1,0,0,1,1-1ZM15.289,38.116H33.1v4.595c.015.287-23.472,0-23.574.1-.317.022.015-39.138-.1-39.24H15.92c.486.632.988,1.467,1.9,1.425H24.71c.912.051,1.421-.805,1.9-1.425H33.1v3.44H15.29a1.972,1.972,0,0,0-1.968,1.972c0,.007,0,2.386,0,2.392s0,24.771,0,24.771a1.972,1.972,0,0,0,1.968,1.972Zm19.418,7.512a.839.839,0,0,1-.838.838H8.666a.839.839,0,0,1-.839-.838V2.807a.839.839,0,0,1,.839-.838h25.2a.839.839,0,0,1,.838.838v4.2h-.635V3.084a.484.484,0,0,0-.485-.485h-7.21a.485.485,0,0,0-.382.186l-.768.983a.638.638,0,0,1-.518.256H17.824A.656.656,0,0,1,17.3,3.76l-.756-.974a.485.485,0,0,0-.383-.187H8.942a.484.484,0,0,0-.485.485V42.711a1.07,1.07,0,0,0,1.071,1.066H33a1.07,1.07,0,0,0,1.071-1.066V38.118h.635v7.511ZM15.289,37.147a1,1,0,0,1-1-1V11.859H50.7V31.086a2,2,0,0,0-1.713.188,2.006,2.006,0,0,0-3.034-1.857,2.01,2.01,0,0,0-3.024-1.6l-.1-3.173c-.077-2.5-4.02-2.425-3.941.122.066,2.123.24,7.788.307,9.981l-1.976-2.634a2.031,2.031,0,0,0-2.749-.478,1.983,1.983,0,0,0-.441,2.8l2.035,2.714H15.289Zm35.573,4.136a2.657,2.657,0,0,1-2.411,1.8l-6.54.2a2.621,2.621,0,0,1-2.369-1.371l-.534-2.395c-.02-.2-4.179-5.6-4.2-5.67A1,1,0,1,1,36.445,32.7l2.9,3.862a.489.489,0,0,0,.874-.308l-.225-7.237-.131-4.278a1,1,0,0,1,2-.062c.083,3.328.208,6.655.311,9.982.1.536-.259,1.658.538,1.709a.485.485,0,0,0,.469-.5l-.147-4.736c.031-.93-.438-2.576.953-2.647a1.055,1.055,0,0,1,1,1.033l0,.146.046,1.482.145,4.66a.485.485,0,0,0,.969-.03l-.145-4.66a1.023,1.023,0,0,1,1-1.033,1.043,1.043,0,0,1,1,1.033s.058,1.846.058,1.847,0,.039,0,.04l.084,2.71a.485.485,0,0,0,.969-.03l-.084-2.71a1,1,0,1,1,2.005,0l.208,6.7a3.153,3.153,0,0,1-.392,1.615ZM47.113,9.432a.577.577,0,0,1,1.153,0A.577.577,0,0,1,47.113,9.432Zm-3.183,0a.577.577,0,0,1,1.153,0A.577.577,0,0,1,43.929,9.432Zm-3.183,0a.577.577,0,0,1,1.153,0A.577.577,0,0,1,40.746,9.432ZM23.25,15.9A1.6,1.6,0,0,0,21,15.819l-2.508,2.326a1.6,1.6,0,0,0,2.17,2.34l2.508-2.326A1.606,1.606,0,0,0,23.25,15.9ZM20,19.775a.627.627,0,0,1-.853-.919l.9-.834.852.919Zm2.508-2.326-.9.834-.852-.919.9-.833a.627.627,0,0,1,.853.918Zm1.106-4.111H18.037a2.029,2.029,0,0,0-2.026,2.026v5.576a2.029,2.029,0,0,0,2.026,2.026h5.576a2.029,2.029,0,0,0,2.026-2.026V15.363A2.029,2.029,0,0,0,23.612,13.337Zm1.057,7.6A1.058,1.058,0,0,1,23.612,22H18.037a1.058,1.058,0,0,1-1.057-1.057V15.363a1.058,1.058,0,0,1,1.057-1.057h5.576a1.058,1.058,0,0,1,1.057,1.057ZM21,27.306l-2.508,2.326a1.6,1.6,0,1,0,2.17,2.34l2.508-2.326A1.6,1.6,0,0,0,21,27.306Zm-1,3.956a.627.627,0,0,1-.853-.919l.9-.834.852.919Zm2.508-2.326-.9.834-.852-.919.9-.833A.627.627,0,0,1,22.507,28.935Zm1.106-4.111H18.037A2.029,2.029,0,0,0,16.01,26.85v5.576a2.029,2.029,0,0,0,2.026,2.027h5.576a2.029,2.029,0,0,0,2.026-2.027V26.85A2.029,2.029,0,0,0,23.612,24.824Zm1.057,7.6a1.058,1.058,0,0,1-1.057,1.057H18.037a1.058,1.058,0,0,1-1.057-1.057V26.85a1.058,1.058,0,0,1,1.057-1.057h5.576A1.058,1.058,0,0,1,24.67,26.85ZM27.334,15.15a.484.484,0,0,1,.485-.485h7.64a.485.485,0,1,1,0,.969h-7.64A.484.484,0,0,1,27.334,15.15Zm0,11.392a.484.484,0,0,1,.485-.485h7.64a.485.485,0,1,1,0,.969h-7.64A.484.484,0,0,1,27.334,26.542Zm0-8.391a.484.484,0,0,1,.485-.485H47.113a.485.485,0,0,1,0,.969H27.819a.484.484,0,0,1-.485-.485Zm0,3a.484.484,0,0,1,.485-.485H47.113a.485.485,0,0,1,0,.969H27.819a.484.484,0,0,1-.485-.485Zm0,8.38a.484.484,0,0,1,.485-.485H37.881a.485.485,0,0,1,0,.969H27.819a.484.484,0,0,1-.485-.485Zm4.789,3.455a.484.484,0,0,1-.485.485h-3.82a.485.485,0,1,1,0-.969h3.82A.484.484,0,0,1,32.124,32.987Z" transform="translate(-6.859 -1)" fill="#7500d3"/>
</svg>
