<svg xmlns="http://www.w3.org/2000/svg" xmlns:xlink="http://www.w3.org/1999/xlink" width="59.9" height="59.9" viewBox="0 0 59.9 59.9">
  <defs>
    <clipPath id="clip-path">
      <path id="path5889" d="M0-682.665H59.9v59.9H0Z" transform="translate(0 682.665)"/>
    </clipPath>
  </defs>
  <g id="g5883" transform="translate(0 682.665)">
    <g id="g5885" transform="translate(0 -682.665)">
      <g id="g5887" clip-path="url(#clip-path)">
        <g id="g5893" transform="translate(1.17 7.419)">
          <path id="path5895" d="M-461.1-468.5h-42.361a1.987,1.987,0,0,1-1.777-2.876l20.259-40.518a3.017,3.017,0,0,1,5.4,0l20.259,40.518A1.987,1.987,0,0,1-461.1-468.5" transform="translate(505.447 513.559)" fill="#ff2d83"/>
        </g>
        <g id="g5897" transform="translate(1.17 7.419)">
          <path id="path5899" d="M-461.1-468.5h-42.361a1.987,1.987,0,0,1-1.777-2.876l20.259-40.518a3.017,3.017,0,0,1,5.4,0l20.259,40.518A1.987,1.987,0,0,1-461.1-468.5Z" transform="translate(505.447 513.559)" fill="none" stroke="#000" stroke-linecap="round" stroke-linejoin="round" stroke-miterlimit="10" stroke-width="2"/>
        </g>
        <g id="g5901" transform="translate(1.17 23.661)">
          <path id="path5903" d="M-479.575-269.734l-12.972-25.944h-19.971l-12.972,25.944a1.987,1.987,0,0,0,1.777,2.876h42.361a1.987,1.987,0,0,0,1.777-2.876" transform="translate(525.703 295.678)" fill="#fb0"/>
        </g>
        <g id="g5905" transform="translate(1.17 23.661)">
          <path id="path5907" d="M-479.575-269.734l-12.972-25.944h-19.971l-12.972,25.944a1.987,1.987,0,0,0,1.777,2.876h42.361A1.987,1.987,0,0,0-479.575-269.734Z" transform="translate(525.703 295.678)" fill="none" stroke="#000" stroke-linecap="round" stroke-linejoin="round" stroke-miterlimit="10" stroke-width="2"/>
        </g>
        <g id="g5909" transform="translate(7.14 23.661)">
          <path id="path5911" d="M0-150.017H34.4l-7.215-14.429H7.215Z" transform="translate(0 164.446)" fill="#00b8ff"/>
        </g>
        <g id="g5913" transform="translate(7.14 23.661)">
          <path id="path5915" d="M-328.855-150.017h2.77l-7.215-14.429h-19.971l-7.215,14.429h22.271" transform="translate(360.486 164.446)" fill="none" stroke="#000" stroke-linecap="round" stroke-linejoin="round" stroke-miterlimit="10" stroke-width="2"/>
        </g>
        <g id="g5917" transform="translate(10.624 43.5)">
          <path id="path5919" d="M0,0,1.977,3.953" fill="none" stroke="#000" stroke-linecap="round" stroke-linejoin="round" stroke-miterlimit="10" stroke-width="2"/>
        </g>
        <g id="g5921" transform="translate(16.988 43.5)">
          <path id="path5923" d="M0,0,1.977,3.953" fill="none" stroke="#000" stroke-linecap="round" stroke-linejoin="round" stroke-miterlimit="10" stroke-width="2"/>
        </g>
        <g id="g5925" transform="translate(23.352 43.5)">
          <path id="path5927" d="M0,0,1.977,3.953" fill="none" stroke="#000" stroke-linecap="round" stroke-linejoin="round" stroke-miterlimit="10" stroke-width="2"/>
        </g>
        <g id="g5929" transform="translate(29.715 43.5)">
          <path id="path5931" d="M0,0,1.977,3.953" fill="none" stroke="#000" stroke-linecap="round" stroke-linejoin="round" stroke-miterlimit="10" stroke-width="2"/>
        </g>
        <g id="g5933" transform="translate(36.079 43.5)">
          <path id="path5935" d="M0,0,1.977,3.953" fill="none" stroke="#000" stroke-linecap="round" stroke-linejoin="round" stroke-miterlimit="10" stroke-width="2"/>
        </g>
        <g id="g5937" transform="translate(16.132 28.663)">
          <path id="path5939" d="M-.033,0h0" transform="translate(0.036)" fill="none" stroke="#000" stroke-linecap="round" stroke-linejoin="round" stroke-miterlimit="10" stroke-width="2"/>
        </g>
        <g id="g5941" transform="translate(21.603 28.663)">
          <path id="path5943" d="M-.033,0h0" transform="translate(0.036)" fill="none" stroke="#000" stroke-linecap="round" stroke-linejoin="round" stroke-miterlimit="10" stroke-width="2"/>
        </g>
        <g id="g5945" transform="translate(27.074 28.663)">
          <path id="path5947" d="M-.033,0h0" transform="translate(0.036)" fill="none" stroke="#000" stroke-linecap="round" stroke-linejoin="round" stroke-miterlimit="10" stroke-width="2"/>
        </g>
        <g id="g5949" transform="translate(32.544 28.663)">
          <path id="path5951" d="M-.033,0h0" transform="translate(0.036)" fill="none" stroke="#000" stroke-linecap="round" stroke-linejoin="round" stroke-miterlimit="10" stroke-width="2"/>
        </g>
        <g id="g5953" transform="translate(18.866 33.578)">
          <path id="path5955" d="M-.033,0h0" transform="translate(0.036)" fill="none" stroke="#000" stroke-linecap="round" stroke-linejoin="round" stroke-miterlimit="10" stroke-width="2"/>
        </g>
        <g id="g5957" transform="translate(24.337 33.578)">
          <path id="path5959" d="M-.033,0h0" transform="translate(0.036)" fill="none" stroke="#000" stroke-linecap="round" stroke-linejoin="round" stroke-miterlimit="10" stroke-width="2"/>
        </g>
        <g id="g5961" transform="translate(29.808 33.578)">
          <path id="path5963" d="M-.033,0h0" transform="translate(0.036)" fill="none" stroke="#000" stroke-linecap="round" stroke-linejoin="round" stroke-miterlimit="10" stroke-width="2"/>
        </g>
        <g id="g5965" transform="translate(35.967 16.178)">
          <path id="path5967" d="M0,0H5.607" fill="none" stroke="#000" stroke-linecap="round" stroke-linejoin="round" stroke-miterlimit="10" stroke-width="2"/>
        </g>
        <g id="g5969" transform="translate(47.51 39.558)">
          <path id="path5971" d="M0,0H5.607" fill="none" stroke="#000" stroke-linecap="round" stroke-linejoin="round" stroke-miterlimit="10" stroke-width="2"/>
        </g>
        <g id="g5973" transform="translate(41.861 28.663)">
          <path id="path5975" d="M0,0H5.607" fill="none" stroke="#000" stroke-linecap="round" stroke-linejoin="round" stroke-miterlimit="10" stroke-width="2"/>
        </g>
        <g id="g5977" transform="translate(41.857 13.372)">
          <path id="path5979" d="M-58.36-29.18a2.807,2.807,0,0,1-2.807,2.807,2.807,2.807,0,0,1-2.807-2.807,2.807,2.807,0,0,1,2.807-2.807A2.807,2.807,0,0,1-58.36-29.18" transform="translate(63.973 31.987)" fill="#ff2d83"/>
        </g>
        <g id="g5981" transform="translate(41.857 13.372)">
          <path id="path5983" d="M-58.36-29.18a2.807,2.807,0,0,1-2.807,2.807,2.807,2.807,0,0,1-2.807-2.807,2.807,2.807,0,0,1,2.807-2.807A2.807,2.807,0,0,1-58.36-29.18Z" transform="translate(63.973 31.987)" fill="none" stroke="#000" stroke-linecap="round" stroke-linejoin="round" stroke-miterlimit="10" stroke-width="2"/>
        </g>
        <g id="g5985" transform="translate(47.507 25.856)">
          <path id="path5987" d="M-58.36-29.18a2.807,2.807,0,0,1-2.807,2.807,2.807,2.807,0,0,1-2.807-2.807,2.807,2.807,0,0,1,2.807-2.807A2.807,2.807,0,0,1-58.36-29.18" transform="translate(63.973 31.987)" fill="#00b8ff"/>
        </g>
        <g id="g5989" transform="translate(47.507 25.856)">
          <path id="path5991" d="M-58.36-29.18a2.807,2.807,0,0,1-2.807,2.807,2.807,2.807,0,0,1-2.807-2.807,2.807,2.807,0,0,1,2.807-2.807A2.807,2.807,0,0,1-58.36-29.18Z" transform="translate(63.973 31.987)" fill="none" stroke="#000" stroke-linecap="round" stroke-linejoin="round" stroke-miterlimit="10" stroke-width="2"/>
        </g>
        <g id="g5993" transform="translate(53.117 36.751)">
          <path id="path5995" d="M-58.36-29.18a2.807,2.807,0,0,1-2.807,2.807,2.807,2.807,0,0,1-2.807-2.807,2.807,2.807,0,0,1,2.807-2.807A2.807,2.807,0,0,1-58.36-29.18" transform="translate(63.973 31.987)" fill="#fb0"/>
        </g>
        <g id="g5997" transform="translate(53.117 36.751)">
          <path id="path5999" d="M-58.36-29.18a2.807,2.807,0,0,1-2.807,2.807,2.807,2.807,0,0,1-2.807-2.807,2.807,2.807,0,0,1,2.807-2.807A2.807,2.807,0,0,1-58.36-29.18Z" transform="translate(63.973 31.987)" fill="none" stroke="#000" stroke-linecap="round" stroke-linejoin="round" stroke-miterlimit="10" stroke-width="2"/>
        </g>
        <g id="g6001" transform="translate(23.187 14.282)">
          <path id="path6003" d="M0,0H2.422" fill="none" stroke="#000" stroke-linecap="round" stroke-linejoin="round" stroke-miterlimit="10" stroke-width="2"/>
        </g>
        <g id="g6005" transform="translate(23.187 18.985)">
          <path id="path6007" d="M0,0H2.422" fill="none" stroke="#000" stroke-linecap="round" stroke-linejoin="round" stroke-miterlimit="10" stroke-width="2"/>
        </g>
        <g id="g6009" transform="translate(34.091 38.09)">
          <path id="path6011" d="M0,0H0" fill="none" stroke="#000" stroke-linecap="round" stroke-linejoin="round" stroke-miterlimit="10" stroke-width="2"/>
        </g>
      </g>
    </g>
  </g>
</svg>
